<svg xmlns="http://www.w3.org/2000/svg" viewBox="0 0 90 90" width="90" height="90">
<g stroke-linecap="round" stroke-width="3" fill="none">
<line x1="45" y1="14" x2="45" y2="26" stroke="#f26c4f"/>
<line x1="14" y1="45" x2="26" y2="45" stroke="#f5c518"/>
<line x1="64" y1="45" x2="76" y2="45" stroke="#e7f26a"/>
<line x1="22" y1="22" x2="32" y2="32" stroke="#2b8eff"/>
<line x1="58" y1="32" x2="68" y2="22" stroke="#ff2d1a"/>
<line x1="22" y1="68" x2="32" y2="58" stroke="#22c55e"/>
<line x1="58" y1="58" x2="68" y2="68" stroke="#f26c4f"/>
<line x1="45" y1="64" x2="45" y2="76" stroke="#1a1a18"/>
</g>
<g fill="#1a1a18">
<circle cx="38" cy="18" r="1.4"/>
<circle cx="52" cy="20" r="1.2"/>
<circle cx="20" cy="38" r="1.4"/>
<circle cx="72" cy="38" r="1.2"/>
<circle cx="18" cy="52" r="1.2"/>
<circle cx="70" cy="52" r="1.4"/>
<circle cx="40" cy="72" r="1.2"/>
<circle cx="54" cy="72" r="1.4"/>
</g>
<circle cx="45" cy="45" r="6" fill="#e7f26a" stroke="#1a1a18" stroke-width="1.4"/>
<circle cx="43" cy="43" r="1.6" fill="#ffffff" opacity="0.6"/>
</svg>
