<svg xmlns="http://www.w3.org/2000/svg" viewBox="0 0 120 76" width="120" height="76">
<rect x="3" y="4" width="118" height="74" rx="10" fill="#1a1a18" opacity="0.08"/>
<rect x="1" y="1" width="118" height="74" rx="10" fill="#f9f6ef" stroke="#1a1a18" stroke-width="1.4"/>
<rect x="9" y="9" width="58" height="10" rx="3" fill="#1a1a18"/>
<g fill="#f5c518" stroke="#1a1a18" stroke-width="0.8">
<circle cx="14" cy="40" r="5"/><circle cx="28" cy="40" r="5"/><circle cx="42" cy="40" r="5"/><circle cx="56" cy="40" r="5"/><circle cx="70" cy="40" r="5"/>
<circle cx="14" cy="56" r="5"/><circle cx="28" cy="56" r="5"/><circle cx="42" cy="56" r="5"/><circle cx="56" cy="56" r="5"/>
</g>
<g stroke="#ffffff" stroke-width="0.8" opacity="0.5" fill="none" stroke-linecap="round">
<path d="M12 38 c 0 1.5 0 3 1.5 4"/>
<path d="M26 38 c 0 1.5 0 3 1.5 4"/>
<path d="M40 38 c 0 1.5 0 3 1.5 4"/>
<path d="M54 38 c 0 1.5 0 3 1.5 4"/>
<path d="M68 38 c 0 1.5 0 3 1.5 4"/>
<path d="M12 54 c 0 1.5 0 3 1.5 4"/>
<path d="M26 54 c 0 1.5 0 3 1.5 4"/>
<path d="M40 54 c 0 1.5 0 3 1.5 4"/>
<path d="M54 54 c 0 1.5 0 3 1.5 4"/>
</g>
<circle cx="70" cy="56" r="5" fill="#f9f6ef" stroke="#1a1a18" stroke-width="1" stroke-dasharray="1.5 1.5"/>
<circle cx="100" cy="50" r="11" fill="#f26c4f" stroke="#1a1a18" stroke-width="1"/>
<circle cx="97" cy="47" r="2.5" fill="#ffffff" opacity="0.35"/>
<text x="100" y="55" text-anchor="middle" font-family="Inter, sans-serif" font-weight="700" font-size="11" fill="#1a1a18">9</text>
</svg>
