<svg xmlns="http://www.w3.org/2000/svg" viewBox="0 0 60 100" width="60" height="100">
<rect x="4" y="5" width="54" height="94" rx="10" fill="#1a1a18" opacity="0.1"/>
<rect x="3" y="3" width="54" height="94" rx="10" fill="#1a1a18" stroke="#1a1a18" stroke-width="1.4"/>
<rect x="7" y="9" width="46" height="82" rx="6" fill="#f9f6ef"/>
<rect x="22" y="11" width="16" height="2.5" rx="1.25" fill="#1a1a18" opacity="0.4"/>
<rect x="11" y="18" width="38" height="12" rx="3" fill="#1a1a18" opacity="0.06"/>
<rect x="11" y="34" width="38" height="50" rx="6" fill="#e7f26a" stroke="#1a1a18" stroke-width="1"/>
<rect x="14" y="38" width="20" height="4" rx="1.5" fill="#1a1a18"/>
<rect x="14" y="44" width="12" height="2.5" rx="1" fill="#1a1a18" opacity="0.5"/>
<g fill="#f5c518" stroke="#1a1a18" stroke-width="0.6">
<circle cx="17" cy="56" r="3"/><circle cx="25" cy="56" r="3"/><circle cx="33" cy="56" r="3"/>
<circle cx="17" cy="66" r="3"/><circle cx="25" cy="66" r="3"/><circle cx="33" cy="66" r="3"/>
</g>
<circle cx="42" cy="76" r="5" fill="#f26c4f" stroke="#1a1a18" stroke-width="0.8"/>
<circle cx="40.5" cy="74.5" r="1.2" fill="#ffffff" opacity="0.5"/>
</svg>
