<svg xmlns="http://www.w3.org/2000/svg" viewBox="0 0 88 88" fill="none" stroke="#1A1A18" stroke-width="1.75" stroke-linecap="round" stroke-linejoin="round">
  <rect x="6" y="6" width="76" height="76" rx="6"/>
  <rect x="14" y="14" width="18" height="18" rx="2"/>
  <rect x="20" y="20" width="6" height="6" fill="#1A1A18"/>
  <rect x="56" y="14" width="18" height="18" rx="2"/>
  <rect x="62" y="20" width="6" height="6" fill="#1A1A18"/>
  <rect x="14" y="56" width="18" height="18" rx="2"/>
  <rect x="20" y="62" width="6" height="6" fill="#1A1A18"/>
  <rect x="40" y="40" width="6" height="6" fill="#1A1A18"/>
  <rect x="52" y="44" width="4" height="4" fill="#1A1A18"/>
  <rect x="62" y="40" width="4" height="4" fill="#1A1A18"/>
  <rect x="40" y="56" width="4" height="4" fill="#1A1A18"/>
  <rect x="52" y="62" width="6" height="6" fill="#E7F26A" stroke-width="1"/>
  <rect x="68" y="56" width="4" height="4" fill="#1A1A18"/>
  <rect x="68" y="68" width="6" height="6" fill="#1A1A18"/>
</svg>
