<svg xmlns="http://www.w3.org/2000/svg" viewBox="0 0 80 80" width="80" height="80">
<rect x="3" y="4" width="78" height="78" rx="14" fill="#1a1a18" opacity="0.08"/>
<rect x="1" y="1" width="78" height="78" rx="14" fill="#f9f6ef" stroke="#1a1a18" stroke-width="1.4"/>
<g fill="#1a1a18">
<rect x="10" y="10" width="20" height="20" rx="4"/>
<rect x="14" y="14" width="12" height="12" rx="1" fill="#f9f6ef"/>
<rect x="17" y="17" width="6" height="6" fill="#1a1a18"/>
<rect x="50" y="10" width="20" height="20" rx="4"/>
<rect x="54" y="14" width="12" height="12" rx="1" fill="#f9f6ef"/>
<rect x="57" y="17" width="6" height="6" fill="#1a1a18"/>
<rect x="10" y="50" width="20" height="20" rx="4"/>
<rect x="14" y="54" width="12" height="12" rx="1" fill="#f9f6ef"/>
<rect x="17" y="57" width="6" height="6" fill="#1a1a18"/>
<rect x="38" y="10" width="4" height="4"/>
<rect x="44" y="14" width="4" height="4"/>
<rect x="38" y="22" width="4" height="4"/>
<rect x="38" y="38" width="4" height="4"/>
<rect x="46" y="38" width="6" height="4"/>
<rect x="56" y="38" width="4" height="6"/>
<rect x="62" y="44" width="4" height="4"/>
<rect x="50" y="50" width="4" height="6"/>
<rect x="58" y="50" width="6" height="4"/>
<rect x="66" y="56" width="4" height="4"/>
<rect x="44" y="60" width="4" height="4"/>
<rect x="52" y="64" width="6" height="4"/>
<rect x="62" y="66" width="6" height="4"/>
</g>
<rect x="46" y="46" width="4" height="4" fill="#e7f26a" stroke="#1a1a18" stroke-width="0.6"/>
</svg>
