<svg xmlns="http://www.w3.org/2000/svg" viewBox="0 0 80 80" width="80" height="80">
<defs><clipPath id="qr-card-clip"><rect x="4" y="4" width="72" height="72" rx="12"/></clipPath></defs>
<rect x="5" y="6" width="72" height="72" rx="12" fill="#1a1a18" opacity="0.07"/>
<rect x="4" y="4" width="72" height="72" rx="12" fill="#f9f6ef" stroke="#1a1a18" stroke-width="1.15"/>
<g clip-path="url(#qr-card-clip)">
<rect x="8.5" y="8.5" width="21" height="21" rx="3.4" fill="#1a1a18"/>
<rect x="11.5" y="11.5" width="15" height="15" rx="1.15" fill="#f9f6ef"/>
<rect x="14.5" y="14.5" width="9" height="9" rx="0.7" fill="#1a1a18"/>
<rect x="50.5" y="8.5" width="21" height="21" rx="3.4" fill="#1a1a18"/>
<rect x="53.5" y="11.5" width="15" height="15" rx="1.15" fill="#f9f6ef"/>
<rect x="56.5" y="14.5" width="9" height="9" rx="0.7" fill="#1a1a18"/>
<rect x="8.5" y="50.5" width="21" height="21" rx="3.4" fill="#1a1a18"/>
<rect x="11.5" y="53.5" width="15" height="15" rx="1.15" fill="#f9f6ef"/>
<rect x="14.5" y="56.5" width="9" height="9" rx="0.7" fill="#1a1a18"/>
<rect x="32.90" y="8.90" width="2.2" height="2.2" rx="0.6" fill="#1a1a18"/>
<rect x="35.90" y="8.90" width="2.2" height="2.2" rx="0.6" fill="#1a1a18"/>
<rect x="38.90" y="11.90" width="2.2" height="2.2" rx="0.6" fill="#1a1a18"/>
<rect x="44.90" y="11.90" width="2.2" height="2.2" rx="0.6" fill="#1a1a18"/>
<rect x="32.90" y="14.90" width="2.2" height="2.2" rx="0.6" fill="#1a1a18"/>
<rect x="35.90" y="14.90" width="2.2" height="2.2" rx="0.6" fill="#1a1a18"/>
<rect x="41.90" y="14.90" width="2.2" height="2.2" rx="0.6" fill="#1a1a18"/>
<rect x="32.90" y="17.90" width="2.2" height="2.2" rx="0.6" fill="#1a1a18"/>
<rect x="38.90" y="17.90" width="2.2" height="2.2" rx="0.6" fill="#1a1a18"/>
<rect x="41.90" y="17.90" width="2.2" height="2.2" rx="0.6" fill="#1a1a18"/>
<rect x="32.90" y="20.90" width="2.2" height="2.2" rx="0.6" fill="#1a1a18"/>
<rect x="41.90" y="20.90" width="2.2" height="2.2" rx="0.6" fill="#1a1a18"/>
<rect x="44.90" y="20.90" width="2.2" height="2.2" rx="0.6" fill="#1a1a18"/>
<rect x="32.90" y="23.90" width="2.2" height="2.2" rx="0.6" fill="#1a1a18"/>
<rect x="35.90" y="23.90" width="2.2" height="2.2" rx="0.6" fill="#1a1a18"/>
<rect x="38.90" y="23.90" width="2.2" height="2.2" rx="0.6" fill="#1a1a18"/>
<rect x="41.90" y="23.90" width="2.2" height="2.2" rx="0.6" fill="#1a1a18"/>
<rect x="32.90" y="26.90" width="2.2" height="2.2" rx="0.6" fill="#1a1a18"/>
<rect x="38.90" y="26.90" width="2.2" height="2.2" rx="0.6" fill="#1a1a18"/>
<rect x="44.90" y="26.90" width="2.2" height="2.2" rx="0.6" fill="#1a1a18"/>
<rect x="14.90" y="32.90" width="2.2" height="2.2" rx="0.6" fill="#1a1a18"/>
<rect x="17.90" y="32.90" width="2.2" height="2.2" rx="0.6" fill="#1a1a18"/>
<rect x="20.90" y="32.90" width="2.2" height="2.2" rx="0.6" fill="#1a1a18"/>
<rect x="23.90" y="32.90" width="2.2" height="2.2" rx="0.6" fill="#1a1a18"/>
<rect x="26.90" y="32.90" width="2.2" height="2.2" rx="0.6" fill="#1a1a18"/>
<rect x="29.90" y="32.90" width="2.2" height="2.2" rx="0.6" fill="#1a1a18"/>
<rect x="38.90" y="32.90" width="2.2" height="2.2" rx="0.6" fill="#1a1a18"/>
<rect x="47.90" y="32.90" width="2.2" height="2.2" rx="0.6" fill="#1a1a18"/>
<rect x="53.90" y="32.90" width="2.2" height="2.2" rx="0.6" fill="#1a1a18"/>
<rect x="56.90" y="32.90" width="2.2" height="2.2" rx="0.6" fill="#1a1a18"/>
<rect x="59.90" y="32.90" width="2.2" height="2.2" rx="0.6" fill="#1a1a18"/>
<rect x="62.90" y="32.90" width="2.2" height="2.2" rx="0.6" fill="#1a1a18"/>
<rect x="68.90" y="32.90" width="2.2" height="2.2" rx="0.6" fill="#1a1a18"/>
<rect x="11.90" y="35.90" width="2.2" height="2.2" rx="0.6" fill="#1a1a18"/>
<rect x="14.90" y="35.90" width="2.2" height="2.2" rx="0.6" fill="#1a1a18"/>
<rect x="17.90" y="35.90" width="2.2" height="2.2" rx="0.6" fill="#1a1a18"/>
<rect x="20.90" y="35.90" width="2.2" height="2.2" rx="0.6" fill="#1a1a18"/>
<rect x="23.90" y="35.90" width="2.2" height="2.2" rx="0.6" fill="#1a1a18"/>
<rect x="32.90" y="35.90" width="2.2" height="2.2" rx="0.6" fill="#1a1a18"/>
<rect x="38.90" y="35.90" width="2.2" height="2.2" rx="0.6" fill="#e7f26a" stroke="#1a1a18" stroke-width="0.35"/>
<rect x="41.90" y="35.90" width="2.2" height="2.2" rx="0.6" fill="#1a1a18"/>
<rect x="44.90" y="35.90" width="2.2" height="2.2" rx="0.6" fill="#1a1a18"/>
<rect x="47.90" y="35.90" width="2.2" height="2.2" rx="0.6" fill="#1a1a18"/>
<rect x="50.90" y="35.90" width="2.2" height="2.2" rx="0.6" fill="#1a1a18"/>
<rect x="53.90" y="35.90" width="2.2" height="2.2" rx="0.6" fill="#1a1a18"/>
<rect x="23.90" y="38.90" width="2.2" height="2.2" rx="0.6" fill="#1a1a18"/>
<rect x="26.90" y="38.90" width="2.2" height="2.2" rx="0.6" fill="#1a1a18"/>
<rect x="35.90" y="38.90" width="2.2" height="2.2" rx="0.6" fill="#1a1a18"/>
<rect x="41.90" y="38.90" width="2.2" height="2.2" rx="0.6" fill="#1a1a18"/>
<rect x="47.90" y="38.90" width="2.2" height="2.2" rx="0.6" fill="#1a1a18"/>
<rect x="53.90" y="38.90" width="2.2" height="2.2" rx="0.6" fill="#1a1a18"/>
<rect x="56.90" y="38.90" width="2.2" height="2.2" rx="0.6" fill="#1a1a18"/>
<rect x="59.90" y="38.90" width="2.2" height="2.2" rx="0.6" fill="#1a1a18"/>
<rect x="62.90" y="38.90" width="2.2" height="2.2" rx="0.6" fill="#1a1a18"/>
<rect x="65.90" y="38.90" width="2.2" height="2.2" rx="0.6" fill="#1a1a18"/>
<rect x="68.90" y="38.90" width="2.2" height="2.2" rx="0.6" fill="#1a1a18"/>
<rect x="8.90" y="41.90" width="2.2" height="2.2" rx="0.6" fill="#1a1a18"/>
<rect x="14.90" y="41.90" width="2.2" height="2.2" rx="0.6" fill="#1a1a18"/>
<rect x="17.90" y="41.90" width="2.2" height="2.2" rx="0.6" fill="#1a1a18"/>
<rect x="20.90" y="41.90" width="2.2" height="2.2" rx="0.6" fill="#1a1a18"/>
<rect x="29.90" y="41.90" width="2.2" height="2.2" rx="0.6" fill="#1a1a18"/>
<rect x="38.90" y="41.90" width="2.2" height="2.2" rx="0.6" fill="#1a1a18"/>
<rect x="44.90" y="41.90" width="2.2" height="2.2" rx="0.6" fill="#1a1a18"/>
<rect x="53.90" y="41.90" width="2.2" height="2.2" rx="0.6" fill="#1a1a18"/>
<rect x="56.90" y="41.90" width="2.2" height="2.2" rx="0.6" fill="#1a1a18"/>
<rect x="62.90" y="41.90" width="2.2" height="2.2" rx="0.6" fill="#1a1a18"/>
<rect x="65.90" y="41.90" width="2.2" height="2.2" rx="0.6" fill="#1a1a18"/>
<rect x="68.90" y="41.90" width="2.2" height="2.2" rx="0.6" fill="#1a1a18"/>
<rect x="8.90" y="44.90" width="2.2" height="2.2" rx="0.6" fill="#1a1a18"/>
<rect x="11.90" y="44.90" width="2.2" height="2.2" rx="0.6" fill="#1a1a18"/>
<rect x="14.90" y="44.90" width="2.2" height="2.2" rx="0.6" fill="#1a1a18"/>
<rect x="20.90" y="44.90" width="2.2" height="2.2" rx="0.6" fill="#1a1a18"/>
<rect x="23.90" y="44.90" width="2.2" height="2.2" rx="0.6" fill="#1a1a18"/>
<rect x="26.90" y="44.90" width="2.2" height="2.2" rx="0.6" fill="#1a1a18"/>
<rect x="29.90" y="44.90" width="2.2" height="2.2" rx="0.6" fill="#1a1a18"/>
<rect x="32.90" y="44.90" width="2.2" height="2.2" rx="0.6" fill="#1a1a18"/>
<rect x="35.90" y="44.90" width="2.2" height="2.2" rx="0.6" fill="#1a1a18"/>
<rect x="47.90" y="44.90" width="2.2" height="2.2" rx="0.6" fill="#1a1a18"/>
<rect x="50.90" y="44.90" width="2.2" height="2.2" rx="0.6" fill="#1a1a18"/>
<rect x="53.90" y="44.90" width="2.2" height="2.2" rx="0.6" fill="#1a1a18"/>
<rect x="62.90" y="44.90" width="2.2" height="2.2" rx="0.6" fill="#1a1a18"/>
<rect x="35.90" y="47.90" width="2.2" height="2.2" rx="0.6" fill="#1a1a18"/>
<rect x="47.90" y="47.90" width="2.2" height="2.2" rx="0.6" fill="#1a1a18"/>
<rect x="53.90" y="47.90" width="2.2" height="2.2" rx="0.6" fill="#1a1a18"/>
<rect x="62.90" y="47.90" width="2.2" height="2.2" rx="0.6" fill="#1a1a18"/>
<rect x="65.90" y="47.90" width="2.2" height="2.2" rx="0.6" fill="#1a1a18"/>
<rect x="32.90" y="50.90" width="2.2" height="2.2" rx="0.6" fill="#1a1a18"/>
<rect x="35.90" y="50.90" width="2.2" height="2.2" rx="0.6" fill="#1a1a18"/>
<rect x="44.90" y="50.90" width="2.2" height="2.2" rx="0.6" fill="#1a1a18"/>
<rect x="47.90" y="50.90" width="2.2" height="2.2" rx="0.6" fill="#1a1a18"/>
<rect x="50.90" y="50.90" width="2.2" height="2.2" rx="0.6" fill="#1a1a18"/>
<rect x="56.90" y="50.90" width="2.2" height="2.2" rx="0.6" fill="#1a1a18"/>
<rect x="62.90" y="50.90" width="2.2" height="2.2" rx="0.6" fill="#1a1a18"/>
<rect x="68.90" y="50.90" width="2.2" height="2.2" rx="0.6" fill="#1a1a18"/>
<rect x="32.90" y="53.90" width="2.2" height="2.2" rx="0.6" fill="#1a1a18"/>
<rect x="35.90" y="53.90" width="2.2" height="2.2" rx="0.6" fill="#1a1a18"/>
<rect x="44.90" y="53.90" width="2.2" height="2.2" rx="0.6" fill="#1a1a18"/>
<rect x="47.90" y="53.90" width="2.2" height="2.2" rx="0.6" fill="#1a1a18"/>
<rect x="59.90" y="53.90" width="2.2" height="2.2" rx="0.6" fill="#1a1a18"/>
<rect x="65.90" y="53.90" width="2.2" height="2.2" rx="0.6" fill="#1a1a18"/>
<rect x="32.90" y="56.90" width="2.2" height="2.2" rx="0.6" fill="#1a1a18"/>
<rect x="35.90" y="56.90" width="2.2" height="2.2" rx="0.6" fill="#1a1a18"/>
<rect x="47.90" y="56.90" width="2.2" height="2.2" rx="0.6" fill="#1a1a18"/>
<rect x="59.90" y="56.90" width="2.2" height="2.2" rx="0.6" fill="#1a1a18"/>
<rect x="68.90" y="56.90" width="2.2" height="2.2" rx="0.6" fill="#1a1a18"/>
<rect x="32.90" y="59.90" width="2.2" height="2.2" rx="0.6" fill="#1a1a18"/>
<rect x="35.90" y="59.90" width="2.2" height="2.2" rx="0.6" fill="#1a1a18"/>
<rect x="38.90" y="59.90" width="2.2" height="2.2" rx="0.6" fill="#1a1a18"/>
<rect x="41.90" y="59.90" width="2.2" height="2.2" rx="0.6" fill="#1a1a18"/>
<rect x="44.90" y="59.90" width="2.2" height="2.2" rx="0.6" fill="#1a1a18"/>
<rect x="53.90" y="59.90" width="2.2" height="2.2" rx="0.6" fill="#1a1a18"/>
<rect x="59.90" y="59.90" width="2.2" height="2.2" rx="0.6" fill="#1a1a18"/>
<rect x="62.90" y="59.90" width="2.2" height="2.2" rx="0.6" fill="#1a1a18"/>
<rect x="65.90" y="59.90" width="2.2" height="2.2" rx="0.6" fill="#1a1a18"/>
<rect x="32.90" y="62.90" width="2.2" height="2.2" rx="0.6" fill="#1a1a18"/>
<rect x="35.90" y="62.90" width="2.2" height="2.2" rx="0.6" fill="#1a1a18"/>
<rect x="38.90" y="62.90" width="2.2" height="2.2" rx="0.6" fill="#1a1a18"/>
<rect x="41.90" y="62.90" width="2.2" height="2.2" rx="0.6" fill="#1a1a18"/>
<rect x="50.90" y="62.90" width="2.2" height="2.2" rx="0.6" fill="#1a1a18"/>
<rect x="53.90" y="62.90" width="2.2" height="2.2" rx="0.6" fill="#1a1a18"/>
<rect x="65.90" y="62.90" width="2.2" height="2.2" rx="0.6" fill="#1a1a18"/>
<rect x="38.90" y="65.90" width="2.2" height="2.2" rx="0.6" fill="#1a1a18"/>
<rect x="44.90" y="65.90" width="2.2" height="2.2" rx="0.6" fill="#1a1a18"/>
<rect x="50.90" y="65.90" width="2.2" height="2.2" rx="0.6" fill="#1a1a18"/>
<rect x="56.90" y="65.90" width="2.2" height="2.2" rx="0.6" fill="#1a1a18"/>
<rect x="68.90" y="65.90" width="2.2" height="2.2" rx="0.6" fill="#1a1a18"/>
<rect x="35.90" y="68.90" width="2.2" height="2.2" rx="0.6" fill="#1a1a18"/>
<rect x="41.90" y="68.90" width="2.2" height="2.2" rx="0.6" fill="#1a1a18"/>
<rect x="44.90" y="68.90" width="2.2" height="2.2" rx="0.6" fill="#1a1a18"/>
<rect x="47.90" y="68.90" width="2.2" height="2.2" rx="0.6" fill="#1a1a18"/>
<rect x="56.90" y="68.90" width="2.2" height="2.2" rx="0.6" fill="#1a1a18"/>
</g></svg>