<svg xmlns="http://www.w3.org/2000/svg" viewBox="0 0 120 36" fill="none" stroke="#1A1A18" stroke-width="1.75" stroke-linecap="round" stroke-linejoin="round">
  <path d="M14 4 l3 7 l8 1 l-6 5 l2 8 l-7 -4 l-7 4 l2 -8 l-6 -5 l8 -1 z" fill="#E7F26A"/>
  <path d="M38 4 l3 7 l8 1 l-6 5 l2 8 l-7 -4 l-7 4 l2 -8 l-6 -5 l8 -1 z" fill="#E7F26A"/>
  <path d="M62 4 l3 7 l8 1 l-6 5 l2 8 l-7 -4 l-7 4 l2 -8 l-6 -5 l8 -1 z" fill="#E7F26A"/>
  <path d="M86 4 l3 7 l8 1 l-6 5 l2 8 l-7 -4 l-7 4 l2 -8 l-6 -5 l8 -1 z" fill="#E7F26A"/>
  <path d="M110 4 l3 7 l8 1 l-6 5 l2 8 l-7 -4 l-7 4 l2 -8 l-6 -5 l8 -1 z" fill="#FFFFFF"/>
</svg>
