<svg xmlns="http://www.w3.org/2000/svg" viewBox="0 0 80 120" fill="none" stroke="#1A1A18" stroke-width="1.75" stroke-linecap="round" stroke-linejoin="round">
  <path d="M14 8 h52 a4 4 0 0 1 4 4 v96 l-8 -6 l-8 6 l-8 -6 l-8 6 l-8 -6 l-8 6 l-8 -6 v-96 a4 4 0 0 1 4 -4 z" fill="#FFFFFF"/>
  <line x1="22" y1="24" x2="58" y2="24" stroke-width="1.5"/>
  <line x1="22" y1="34" x2="50" y2="34" stroke-width="1.25" stroke-opacity="0.6"/>
  <line x1="22" y1="50" x2="58" y2="50" stroke-width="1.25" stroke-opacity="0.6"/>
  <line x1="22" y1="58" x2="58" y2="58" stroke-width="1.25" stroke-opacity="0.6"/>
  <line x1="22" y1="66" x2="44" y2="66" stroke-width="1.25" stroke-opacity="0.6"/>
  <circle cx="40" cy="86" r="6" fill="#E7F26A"/>
  <path d="M36 86 l3 3 l6 -6" stroke-width="1.75"/>
</svg>
